<svg id="visual" viewBox="0 0 960 540" width="960" height="540" xmlns="http://www.w3.org/2000/svg" xmlns:xlink="http://www.w3.org/1999/xlink" version="1.1"><path d="M0 85L137 85L137 58L274 58L274 78L411 78L411 73L549 73L549 79L686 79L686 63L823 63L823 65L960 65L960 69L960 0L960 0L823 0L823 0L686 0L686 0L549 0L549 0L411 0L411 0L274 0L274 0L137 0L137 0L0 0Z" fill="#00ff55"></path><path d="M0 34L137 34L137 41L274 41L274 27L411 27L411 39L549 39L549 27L686 27L686 40L823 40L823 25L960 25L960 35L960 0L960 0L823 0L823 0L686 0L686 0L549 0L549 0L411 0L411 0L274 0L274 0L137 0L137 0L0 0Z" fill="#560090"></path></svg>