<svg id="visual" viewBox="0 0 540 960" width="540" height="960" xmlns="http://www.w3.org/2000/svg" xmlns:xlink="http://www.w3.org/1999/xlink" version="1.1"><path d="M0 152L77 152L77 104L154 104L154 140L231 140L231 131L309 131L309 141L386 141L386 113L463 113L463 116L540 116L540 123L540 0L540 0L463 0L463 0L386 0L386 0L309 0L309 0L231 0L231 0L154 0L154 0L77 0L77 0L0 0Z" fill="#00ff55"></path><path d="M0 62L77 62L77 74L154 74L154 49L231 49L231 70L309 70L309 48L386 48L386 73L463 73L463 44L540 44L540 63L540 0L540 0L463 0L463 0L386 0L386 0L309 0L309 0L231 0L231 0L154 0L154 0L77 0L77 0L0 0Z" fill="#560090"></path></svg>